<mxfile host="Electron" modified="2024-01-18T03:02:27.720Z" agent="Mozilla/5.0 (Macintosh; Intel Mac OS X 10_15_7) AppleWebKit/537.36 (KHTML, like Gecko) draw.io/22.1.18 Chrome/120.0.6099.199 Electron/28.1.2 Safari/537.36" etag="l2jT3yG6k5Z8zn2jI3jI" version="22.1.18" type="device">
  <diagram name="Governance" id="ASqNZsRTcQPcP9DmmxkE">
    <mxGraphModel dx="3314" dy="854" grid="1" gridSize="10" guides="1" tooltips="1" connect="1" arrows="1" fold="1" page="1" pageScale="1" pageWidth="1100" pageHeight="850" math="0" shadow="0">
      <root>
        <mxCell id="na60a0lLI7LEdj6LmkeG-0" />
        <mxCell id="na60a0lLI7LEdj6LmkeG-1" parent="na60a0lLI7LEdj6LmkeG-0" />
        <object placeholders="1" c4Name="DATA GOVERNANCE" c4Type="ContainerScopeBoundary" c4Application="METHODOLOGY" label="&lt;font style=&quot;font-size: 16px&quot;&gt;&lt;b&gt;&lt;div style=&quot;text-align: left&quot;&gt;%c4Name%&lt;/div&gt;&lt;/b&gt;&lt;/font&gt;&lt;div style=&quot;text-align: left&quot;&gt;[%c4Application%]&lt;/div&gt;" id="na60a0lLI7LEdj6LmkeG-32">
          <mxCell style="rounded=1;fontSize=11;whiteSpace=wrap;html=1;arcSize=20;fillColor=none;strokeColor=#0066CC;fontColor=#333333;labelBackgroundColor=none;align=left;verticalAlign=bottom;labelBorderColor=none;spacingTop=0;spacing=10;metaEdit=1;rotatable=0;perimeter=rectanglePerimeter;noLabel=0;labelPadding=0;allowArrows=0;connectable=0;expand=0;recursiveResize=0;editable=1;pointerEvents=0;absoluteArcSize=1;metaData={&quot;c4Type&quot;:{&quot;editable&quot;:false}};points=[[0.25,0,0],[0.5,0,0],[0.75,0,0],[1,0.25,0],[1,0.5,0],[1,0.75,0],[0.75,1,0],[0.5,1,0],[0.25,1,0],[0,0.75,0],[0,0.5,0],[0,0.25,0]];strokeWidth=9;fontFamily=Lato;fontSource=https%3A%2F%2Ffonts.googleapis.com%2Fcss%3Ffamily%3DLato;" parent="na60a0lLI7LEdj6LmkeG-1" vertex="1">
            <mxGeometry x="-1750" y="110" width="480" height="520" as="geometry" />
          </mxCell>
        </object>
        <mxCell id="oViCr7dPxAOUAtRBUVRd-11" value="&lt;p style=&quot;line-height: 110%;&quot;&gt;&lt;/p&gt;&lt;ul style=&quot;font-size: 16px;&quot;&gt;&lt;li&gt;&lt;b&gt;POLICY MANAGEMENT&lt;/b&gt;&lt;/li&gt;&lt;/ul&gt;&lt;ul style=&quot;font-size: 16px;&quot;&gt;&lt;li&gt;&lt;b&gt;DATA QUALITY&lt;/b&gt;&lt;/li&gt;&lt;/ul&gt;&lt;ul style=&quot;font-size: 16px;&quot;&gt;&lt;li&gt;&lt;b&gt;MASTER DATA MANAGEMENT&lt;/b&gt;&lt;/li&gt;&lt;/ul&gt;&lt;ul style=&quot;font-size: 16px;&quot;&gt;&lt;li&gt;&lt;b&gt;METADATA MANAGEMENT&lt;/b&gt;&lt;/li&gt;&lt;/ul&gt;&lt;ul style=&quot;font-size: 16px;&quot;&gt;&lt;li&gt;&lt;b&gt;DATA SECURITY &amp;amp; PRIVACY&lt;/b&gt;&lt;/li&gt;&lt;/ul&gt;&lt;p&gt;&lt;/p&gt;" style="align=left;spacingLeft=10;html=1;dashed=0;strokeColor=#E6E6E6;fillColor=none;gradientColor=#E6E6E6;" parent="na60a0lLI7LEdj6LmkeG-1" vertex="1">
          <mxGeometry x="-1743.5" y="210" width="360" height="300" as="geometry" />
        </mxCell>
        <mxCell id="smdRDgDMbR2A5w3TlbRL-4" value="" style="sketch=0;outlineConnect=0;fontColor=#232F3E;gradientColor=none;fillColor=#000000;strokeColor=none;dashed=0;verticalLabelPosition=bottom;verticalAlign=top;align=center;html=1;fontSize=12;fontStyle=0;aspect=fixed;pointerEvents=1;shape=mxgraph.aws4.aws_glue_data_quality;" vertex="1" parent="na60a0lLI7LEdj6LmkeG-1">
          <mxGeometry x="-1400" y="220" width="78" height="78" as="geometry" />
        </mxCell>
        <mxCell id="smdRDgDMbR2A5w3TlbRL-6" value="" style="sketch=0;outlineConnect=0;fontColor=#232F3E;gradientColor=none;fillColor=#000000;strokeColor=none;dashed=0;verticalLabelPosition=bottom;verticalAlign=top;align=center;html=1;fontSize=12;fontStyle=0;aspect=fixed;pointerEvents=1;shape=mxgraph.aws4.policy;" vertex="1" parent="na60a0lLI7LEdj6LmkeG-1">
          <mxGeometry x="-1400" y="130" width="78" height="67" as="geometry" />
        </mxCell>
        <mxCell id="smdRDgDMbR2A5w3TlbRL-7" value="" style="sketch=0;outlineConnect=0;fontColor=#232F3E;gradientColor=none;fillColor=#1D051F;strokeColor=none;dashed=0;verticalLabelPosition=bottom;verticalAlign=top;align=center;html=1;fontSize=12;fontStyle=0;aspect=fixed;pointerEvents=1;shape=mxgraph.aws4.rds_multi_az_db_cluster;" vertex="1" parent="na60a0lLI7LEdj6LmkeG-1">
          <mxGeometry x="-1400" y="330" width="78" height="78" as="geometry" />
        </mxCell>
        <mxCell id="smdRDgDMbR2A5w3TlbRL-8" value="" style="sketch=0;outlineConnect=0;fontColor=#232F3E;gradientColor=none;fillColor=#000000;strokeColor=none;dashed=0;verticalLabelPosition=bottom;verticalAlign=top;align=center;html=1;fontSize=12;fontStyle=0;aspect=fixed;pointerEvents=1;shape=mxgraph.aws4.traditional_server;" vertex="1" parent="na60a0lLI7LEdj6LmkeG-1">
          <mxGeometry x="-1383.5" y="450" width="45" height="78" as="geometry" />
        </mxCell>
        <mxCell id="smdRDgDMbR2A5w3TlbRL-9" value="" style="sketch=0;outlineConnect=0;fontColor=#232F3E;gradientColor=none;fillColor=#000000;strokeColor=none;dashed=0;verticalLabelPosition=bottom;verticalAlign=top;align=center;html=1;fontSize=12;fontStyle=0;aspect=fixed;pointerEvents=1;shape=mxgraph.aws4.addon;" vertex="1" parent="na60a0lLI7LEdj6LmkeG-1">
          <mxGeometry x="-1390" y="560" width="78" height="40" as="geometry" />
        </mxCell>
        <mxCell id="smdRDgDMbR2A5w3TlbRL-10" value="" style="sketch=0;pointerEvents=1;shadow=0;dashed=0;html=1;strokeColor=none;fillColor=#505050;labelPosition=center;verticalLabelPosition=bottom;verticalAlign=top;outlineConnect=0;align=center;shape=mxgraph.office.users.users;" vertex="1" parent="na60a0lLI7LEdj6LmkeG-1">
          <mxGeometry x="-1640" y="170" width="90" height="80" as="geometry" />
        </mxCell>
      </root>
    </mxGraphModel>
  </diagram>
</mxfile>
